<?xml version="1.0" standalone="no"?><!DOCTYPE svg PUBLIC "-//W3C//DTD SVG 1.1//EN" "http://www.w3.org/Graphics/SVG/1.1/DTD/svg11.dtd"><svg class="icon" width="32px" height="32.00px" viewBox="0 0 1024 1024" version="1.1" xmlns="http://www.w3.org/2000/svg"><path fill="#ffffff" d="M776.533333 755.456H598.903467c-14.421333 0-26.112 12.475733-26.112 27.869867v168.618666h28.433066L776.533333 760.439467v-4.983467zM776.533333 699.733333v-88.183466c0-15.189333 11.4688-27.477333 25.6-27.477334s25.6 12.288 25.6 27.477334v160.136533c0 7.2192-2.645333 14.1312-7.338666 19.285333L630.2208 998.7072a24.746667 24.746667 0 0 1-18.261333 8.226133H228.693333C163.669333 1006.933333 110.933333 950.306133 110.933333 880.452267V143.530667C110.933333 73.693867 163.669333 17.066667 228.693333 17.066667h481.28C774.997333 17.066667 827.733333 73.693867 827.733333 143.547733v48.930134c0 15.189333-11.4688 27.477333-25.6 27.477333s-25.6-12.288-25.6-27.477333V143.530667c0-39.4752-29.7984-71.492267-66.56-71.492267H228.693333c-36.7616 0-66.56 32.017067-66.56 71.509333v736.887467c0 39.4752 29.7984 71.492267 66.56 71.492267H520.533333v-168.618667C520.533333 737.160533 555.6224 699.733333 598.903467 699.733333H776.533333zM367.1552 281.6c27.306667 0 48.6912 7.150933 63.556267 21.4528 14.336 13.653333 20.8384 32.494933 20.002133 55.893333h-37.034667c-1.024-15.274667-6.0928-26.3168-15.479466-33.467733-9.045333-7.168-21.76-10.410667-38.007467-10.410667-24.388267 0-44.117333 8.1408-59.648 25.0368-14.199467 14.9504-23.637333 35.754667-28.672 62.395734-5.137067 27.306667-3.584 48.4352 4.693333 63.061333 9.079467 15.598933 26.402133 23.722667 51.7632 23.722667 16.554667 0 31.010133-4.232533 42.888534-12.032 12.6976-8.772267 23.005867-22.101333 30.8736-39.645867h37.034666c-10.325333 27.306667-26.333867 48.418133-48.401066 63.6928a117.162667 117.162667 0 0 1-68.386134 21.4528c-38.673067 0-65.28-12.3392-79.598933-36.4032-12.6464-20.7872-15.496533-48.7424-8.874667-83.848533 6.485333-34.440533 20.258133-62.72 41.540267-84.1728 24.149333-24.695467 54.698667-36.727467 91.7504-36.727467z m235.7248 0c27.306667 0 47.7184 5.5296 60.842667 16.896 13.994667 12.032 19.8656 30.890667 17.3568 56.234667h-37.717334c-0.546133-14.301867-4.7616-24.712533-12.049066-30.890667-7.2192-6.485333-19.6608-9.4208-36.573867-9.4208-14.626133 0-26.043733 1.962667-34.645333 6.178133-10.6496 4.881067-16.725333 13.0048-18.824534 24.064-1.8432 9.728 1.826133 17.8688 11.776 23.722667 4.386133 2.594133 16.7936 7.4752 36.9664 14.2848 29.696 9.762133 48.366933 17.5616 56.490667 22.766933 17.8688 12.014933 24.832 28.586667 20.7872 50.039467-3.925333 20.804267-15.189333 37.376-33.6896 49.408-18.466133 11.690667-42.7008 17.8688-72.277333 17.8688-28.603733 0-49.988267-5.5296-63.829334-16.571733-16.930133-13.653333-23.6032-35.106133-19.6608-64.682667h37.717334c-0.7168 17.5616 3.072 30.225067 11.7248 37.717333 7.8848 6.485333 21.179733 10.069333 40.362666 10.069334 16.896 0 31.095467-2.935467 41.8816-8.448 10.8544-5.853867 17.476267-13.329067 19.3024-23.074134 2.338133-12.356267-3.310933-22.101333-16.247466-29.252266-4.130133-2.286933-18.090667-7.4752-42.308267-15.274667-26.88-9.1136-43.52-15.616-49.6128-19.5072-15.872-10.717867-21.691733-26.333867-17.834667-46.7968 3.857067-20.48 15.36-36.727467 35.1232-48.4352 18.397867-11.3664 39.918933-16.896 64.938667-16.896z m228.266667 0c27.306667 0 47.701333 5.5296 60.842666 16.896 13.994667 12.032 19.848533 30.890667 17.339734 56.234667h-37.700267c-0.546133-14.301867-4.7616-24.712533-12.049067-30.890667-7.2192-6.485333-19.677867-9.4208-36.573866-9.4208-14.626133 0-26.043733 1.962667-34.645334 6.178133-10.666667 4.881067-16.7424 13.0048-18.824533 24.064-1.8432 9.728 1.826133 17.8688 11.776 23.722667 4.386133 2.594133 16.7936 7.4752 36.949333 14.2848 29.696 9.762133 48.366933 17.5616 56.490667 22.766933 17.885867 12.014933 24.832 28.586667 20.7872 50.039467-3.925333 20.804267-15.172267 37.376-33.6896 49.408-18.449067 11.690667-42.683733 17.8688-72.260267 17.8688-28.603733 0-50.005333-5.5296-63.829333-16.571733-16.930133-13.653333-23.620267-35.106133-19.6608-64.682667h37.700267c-0.7168 17.5616 3.072 30.225067 11.741866 37.717333 7.867733 6.485333 21.162667 10.069333 40.3456 10.069334 16.896 0 31.112533-2.935467 41.898667-8.448 10.8544-5.853867 17.4592-13.329067 19.3024-23.074134 2.321067-12.356267-3.310933-22.101333-16.264533-29.252266-4.113067-2.286933-18.090667-7.4752-42.2912-15.274667-26.88-9.1136-43.52-15.616-49.629867-19.5072-15.854933-10.717867-21.674667-26.333867-17.8176-46.7968 3.857067-20.48 15.36-36.727467 35.1232-48.4352 18.397867-11.3664 39.918933-16.896 64.938667-16.896z"  /></svg>