<?xml version="1.0" standalone="no"?><!DOCTYPE svg PUBLIC "-//W3C//DTD SVG 1.1//EN" "http://www.w3.org/Graphics/SVG/1.1/DTD/svg11.dtd"><svg class="icon" width="32px" height="26.26px" viewBox="0 0 1248 1024" version="1.1" xmlns="http://www.w3.org/2000/svg"><path fill="#ffffff" d="M365.550936 932.156487l219.317768-109.674876 0-179.337134-219.317768 93.682622 0 195.329387zM328.992644 672.858084l230.736237-98.800144-230.736237-98.800144-230.736237 98.800144zM950.387656 932.156487l219.317768-109.674876 0-179.337134-219.317768 93.682622 0 195.329387zM913.829364 672.858084l230.736237-98.800144-230.736237-98.800144-230.736237 98.800144zM657.953304 505.515141l219.317768-94.226359 0-151.926411-219.317768 93.682622 0 152.502132zM621.426996 289.043994l251.877997-107.947713-251.877997-107.947713-251.877997 107.947713zM1242.822008 584.900689l0 237.612906q0 20.566038-10.842748 38.253471t-29.713607 26.835002l-255.87606 127.93803q-14.26509 7.996127-32.560229 7.996127t-32.560229-7.996127l-255.87606-127.93803q-2.846621-1.151442-3.998063-2.2709-1.151442 1.151442-3.998063 2.2709l-255.87606 127.93803q-14.26509 7.996127-32.560229 7.996127t-32.560229-7.996127l-255.87606-127.93803q-18.838875-9.147569-29.713607-26.835002t-10.842748-38.253471l0-237.612906q0-21.717481 12.282051-39.980634t32.272368-27.410723l247.879933-106.220549 0-228.465337q0-21.717481 12.282051-39.980634t32.272368-27.410723l255.87606-109.674876q13.145633-5.725227 28.562165-5.725227t28.562165 5.725227l255.87606 109.674876q19.990317 9.147569 32.272368 27.410723t12.282051 39.980634l0 228.465337 247.879933 106.220549q20.566038 9.147569 32.560229 27.410723t11.99419 39.980634z" /></svg>