<?xml version="1.0" standalone="no"?><!DOCTYPE svg PUBLIC "-//W3C//DTD SVG 1.1//EN" "http://www.w3.org/Graphics/SVG/1.1/DTD/svg11.dtd"><svg class="icon" width="32px" height="32.00px" viewBox="0 0 1024 1024" version="1.1" xmlns="http://www.w3.org/2000/svg"><path fill="#ffffff" d="M320.8 475.2c-22.4 0-44.8-5.6-64.8-16.8-31.2-17.6-53.6-45.6-63.2-80-9.6-34.4-5.6-70.4 12-101.6 36-64 117.6-87.2 181.6-51.2 31.2 17.6 53.6 45.6 63.2 80 9.6 34.4 5.6 70.4-12 101.6-24.8 43.2-70.4 68-116.8 68z m0.8-251.2C280 224 240 245.6 218.4 284c-15.2 27.2-19.2 59.2-10.4 89.6 8.8 30.4 28 55.2 56 70.4 56.8 32 128 11.2 160-44.8 15.2-27.2 19.2-59.2 10.4-89.6-8.8-30.4-28-55.2-56-70.4-18.4-10.4-37.6-15.2-56.8-15.2z"  /><path fill="#ffffff" d="M324.8 680c-2.4 0-5.6-0.8-8-2.4L36.8 520c-4.8-2.4-8-8-8-13.6L24 184.8c0-5.6 3.2-11.2 8-13.6L308.8 6.4c4.8-3.2 11.2-3.2 16 0l280.8 157.6c4.8 2.4 8 8 8 13.6l4 321.6c0 5.6-3.2 11.2-8 13.6L333.6 677.6c-3.2 1.6-5.6 2.4-8.8 2.4zM60 496.8l264.8 148.8 260.8-155.2-4-304L316.8 38.4 56 193.6l4 303.2zM825.6 292c-13.6 0-26.4-3.2-38.4-10.4-18.4-10.4-31.2-27.2-36.8-47.2-5.6-20-3.2-41.6 7.2-60 21.6-37.6 69.6-51.2 107.2-29.6 18.4 10.4 31.2 27.2 36.8 47.2 5.6 20 3.2 41.6-7.2 60s-27.2 31.2-47.2 36.8c-7.2 2.4-14.4 3.2-21.6 3.2z m0-140.8c-21.6 0-43.2 11.2-54.4 32-8 14.4-10.4 31.2-5.6 48 4.8 16 15.2 29.6 29.6 37.6 14.4 8 31.2 10.4 48 5.6 16-4.8 29.6-15.2 37.6-29.6 8-14.4 10.4-31.2 5.6-48-4.8-16-15.2-29.6-29.6-37.6-9.6-5.6-20.8-8-31.2-8z"  /><path fill="#ffffff" d="M828 411.2c-2.4 0-5.6-0.8-8-2.4L661.6 320c-4.8-2.4-8-8-8-13.6l-2.4-181.6c0-5.6 3.2-11.2 8-13.6L816 18.4c4.8-3.2 11.2-3.2 16 0l158.4 88.8c4.8 2.4 8 8 8 13.6l2.4 181.6c0 5.6-3.2 11.2-8 13.6l-156 92.8c-3.2 1.6-6.4 2.4-8.8 2.4zM685.6 296.8l142.4 80L968 293.6l-1.6-163.2-142.4-80-140 83.2 1.6 163.2zM748 1020c-2.4 0-5.6-0.8-8-2.4l-224-130.4c-4.8-3.2-8-8-8-13.6l0.8-259.2c0-5.6 3.2-11.2 8-13.6L741.6 472c4.8-3.2 11.2-2.4 16 0l224 130.4c4.8 3.2 8 8 8 13.6l-0.8 259.2c0 5.6-3.2 11.2-8 13.6l-224.8 128.8c-2.4 1.6-4.8 2.4-8 2.4z m-208-155.2l208 120.8 208.8-120 0.8-240.8-208-120.8-208.8 120-0.8 240.8z"  /><path fill="#ffffff" d="M748.8 854.4c-19.2 0-37.6-4.8-54.4-14.4-52-30.4-69.6-96.8-39.2-148.8 14.4-24.8 38.4-43.2 66.4-50.4 28-7.2 57.6-3.2 82.4 11.2 24.8 14.4 43.2 38.4 50.4 66.4 7.2 28 3.2 57.6-11.2 82.4-14.4 24.8-38.4 43.2-66.4 50.4-9.6 1.6-18.4 3.2-28 3.2z m-46.4-28.8c21.6 12.8 46.4 16 70.4 9.6 24-6.4 44-21.6 56.8-43.2 12.8-21.6 16-46.4 9.6-70.4-6.4-24-21.6-44-43.2-56.8-21.6-12.8-46.4-16-70.4-9.6-24 6.4-44 21.6-56.8 43.2-25.6 44.8-11.2 101.6 33.6 127.2z"  /></svg>